<!-- Generator: Adobe Illustrator 26.0.3, SVG Export Plug-In . SVG Version: 6.00 Build 0)  --><svg version="1.1" id="Слой_1" xmlns="http://www.w3.org/2000/svg" xmlns:xlink="http://www.w3.org/1999/xlink" x="0px" y="0px" viewBox="0 0 36 36" style="enable-background:new 0 0 36 36;" xml:space="preserve" height="36" width="36"><style type="text/css">	.st0{fill:#F35A05;}	.st1{fill:#FFFFFF;}</style><circle class="st0" cx="18" cy="18" r="18" /><path class="st1" d="M19.7,12.2c-0.2,0.1-0.6,0.2-1.3,0.5c-1.4,0.5-2.2,0.8-2.6,0.8c-0.2,0-0.4-0.1-0.6-0.2  c-0.1-0.1-0.2-0.3-0.2-0.5c0-0.5,0.2-1,0.7-1.2c0.5-0.3,1.5-0.6,3.1-1c1.6-0.4,2.5-0.6,2.8-0.6c0.5,0,0.7,0.2,0.7,0.7  c0,0.3-0.2,0.8-0.5,1.3c-0.8,1.4-1.8,3.6-2.9,6.7c-1.1,3.1-1.8,5.6-2.1,7.5c0,0.3-0.2,0.5-0.4,0.7c-0.2,0.2-0.5,0.2-0.8,0.2  c-0.7,0-1-0.3-1-0.9c0-1,0.6-3.1,1.7-6.3C17.5,16.6,18.6,14.1,19.7,12.2z" /></svg>