<?xml version="1.0" encoding="UTF-8"?>
<svg xmlns="http://www.w3.org/2000/svg" xmlns:xlink="http://www.w3.org/1999/xlink" width="36px" height="36px" viewBox="0 0 36 36" version="1.1">
<g id="surface1">
<path style=" stroke:none;fill-rule:nonzero;fill:rgb(95.294118%,35.294118%,1.960784%);fill-opacity:1;" d="M 36 18 C 36 27.941406 27.941406 36 18 36 C 8.058594 36 0 27.941406 0 18 C 0 8.058594 8.058594 0 18 0 C 27.941406 0 36 8.058594 36 18 Z M 36 18 "/>
<path style=" stroke:none;fill-rule:nonzero;fill:rgb(100%,100%,100%);fill-opacity:1;" d="M 14.699219 24.398438 C 15.199219 24.398438 15.601562 24.398438 15.800781 24.398438 C 16.5 24.398438 17.601562 24.5 19.101562 24.601562 C 20.601562 24.699219 21.800781 24.898438 22.601562 25 C 23.398438 25.101562 23.898438 25.199219 24.101562 25.398438 C 24.300781 25.5 24.5 25.699219 24.601562 25.898438 C 24.699219 26.101562 24.800781 26.300781 24.800781 26.601562 C 24.800781 26.800781 24.699219 27 24.398438 27.199219 C 24.101562 27.398438 23.800781 27.5 23.601562 27.5 C 23.300781 27.5 22.800781 27.398438 22.199219 27.300781 C 21.101562 27 19.898438 26.800781 18.398438 26.699219 C 16.898438 26.601562 15.601562 26.5 14.300781 26.5 C 13.699219 26.5 13.199219 26.601562 12.601562 26.800781 C 12.300781 26.898438 11.898438 27 11.601562 27 C 11.398438 27 11.199219 26.898438 11.101562 26.800781 C 11 26.699219 10.898438 26.5 10.898438 26.300781 C 10.898438 25.601562 11.5 24.699219 12.601562 23.699219 C 13.699219 22.699219 15.300781 21.601562 17.300781 20.601562 C 19.800781 19.300781 21.398438 18.300781 22.199219 17.398438 C 23 16.5 23.398438 15.699219 23.398438 14.898438 C 23.398438 14.101562 23.101562 13.5 22.5 12.898438 C 21.898438 12.300781 21.199219 12.101562 20.300781 12.101562 C 19.5 12.101562 18.699219 12.199219 18 12.5 C 17.300781 12.800781 16.601562 13.300781 16 14 C 15.699219 14.300781 15.5 14.398438 15.300781 14.398438 C 15 14.398438 14.800781 14.300781 14.5 14.101562 C 14.300781 13.898438 14.199219 13.699219 14.199219 13.398438 C 14.199219 12.601562 14.800781 11.800781 16.101562 11.101562 C 17.398438 10.398438 18.898438 10 20.601562 10 C 22.101562 10 23.300781 10.398438 24.300781 11.300781 C 25.300781 12.199219 25.800781 13.300781 25.800781 14.699219 C 25.800781 16.101562 25.300781 17.398438 24.199219 18.5 C 23.101562 19.699219 21.101562 20.898438 18.199219 22.300781 C 16.601562 22.898438 15.601562 23.601562 14.699219 24.398438 Z M 14.699219 24.398438 "/>
</g>
</svg>
