<?xml version="1.0" encoding="UTF-8"?>
<svg xmlns="http://www.w3.org/2000/svg" xmlns:xlink="http://www.w3.org/1999/xlink" width="36px" height="36px" viewBox="0 0 36 36" version="1.1">
<g id="surface1">
<path style=" stroke:none;fill-rule:nonzero;fill:rgb(95.294118%,35.294118%,1.960784%);fill-opacity:1;" d="M 36 18 C 36 27.941406 27.941406 36 18 36 C 8.058594 36 0 27.941406 0 18 C 0 8.058594 8.058594 0 18 0 C 27.941406 0 36 8.058594 36 18 Z M 36 18 "/>
<path style=" stroke:none;fill-rule:nonzero;fill:rgb(100%,100%,100%);fill-opacity:1;" d="M 21.101562 18.300781 C 21.800781 18.601562 22.300781 19 22.699219 19.601562 C 23.101562 20.199219 23.300781 20.800781 23.300781 21.5 C 23.300781 23.101562 22.699219 24.5 21.398438 25.5 C 20.101562 26.5 18.5 27 16.5 27 C 14.898438 27 13.5 26.601562 12.101562 25.800781 C 10.800781 25 10.101562 24.199219 10.101562 23.300781 C 10.101562 23 10.199219 22.699219 10.398438 22.5 C 10.601562 22.300781 10.898438 22.101562 11.101562 22.101562 C 11.601562 22.101562 12 22.300781 12.101562 22.601562 C 13 24.199219 14.398438 25 16.5 25 C 17.898438 25 19 24.699219 19.800781 24.101562 C 20.601562 23.5 21 22.699219 21 21.699219 C 21 21.199219 20.800781 20.800781 20.5 20.398438 C 20.199219 20 19.800781 19.800781 19.398438 19.699219 C 19 19.601562 18.199219 19.5 17 19.5 C 16.699219 19.5 16.398438 19.398438 16.300781 19.199219 C 16.101562 19 16 18.699219 16 18.5 C 16 18.300781 16.101562 18 16.300781 17.800781 C 16.5 17.601562 16.898438 17.5 17.300781 17.5 C 17.601562 17.5 17.898438 17.5 18.199219 17.5 L 19 17.601562 C 19.101562 17.601562 19.5 17.5 20.199219 17.199219 C 20.898438 16.898438 21.398438 16.5 21.800781 16.101562 C 22.199219 15.601562 22.398438 15.101562 22.398438 14.5 C 22.398438 13.800781 22.101562 13.199219 21.5 12.699219 C 20.898438 12.199219 20.101562 12 19.101562 12 C 17.398438 12 16.101562 12.601562 15.199219 13.800781 C 15 14.101562 14.601562 14.300781 14.300781 14.300781 C 14 14.300781 13.800781 14.199219 13.601562 14 C 13.398438 13.800781 13.300781 13.601562 13.300781 13.300781 C 13.300781 12.601562 13.898438 11.898438 15.199219 11.101562 C 16.5 10.300781 17.898438 10 19.5 10 C 21 10 22.300781 10.398438 23.300781 11.199219 C 24.300781 12 24.800781 13 24.800781 14.300781 C 24.800781 15.199219 24.5 16.101562 23.800781 16.800781 C 23.199219 17.398438 22.300781 18 21.101562 18.300781 Z M 21.101562 18.300781 "/>
</g>
</svg>
