<svg width="575" height="325" viewBox="0 0 575 325" fill="none" xmlns="http://www.w3.org/2000/svg">
<g filter="url(#filter0_d_37_14)">
<path fill-rule="evenodd" clip-rule="evenodd" d="M65 32C56.7157 32 50 38.7157 50 47V59L40 67L50 75V262C50 270.284 56.7157 277 65 277H520C528.284 277 535 270.284 535 262V47C535 38.7157 528.284 32 520 32H65Z" fill="white"/>
</g>
<path d="M55 59L55.3123 59.3904L55.5 59.2403V59H55ZM45 67L44.6877 66.6096L44.1996 67L44.6877 67.3904L45 67ZM55 75H55.5V74.7597L55.3123 74.6096L55 75ZM54.5 53.75V54.25H55.5V53.75H54.5ZM55.5 57.25V56.75H54.5V57.25H55.5ZM52.1877 60.6096L51.7972 60.9219L52.4219 61.7028L52.8123 61.3904L52.1877 60.6096ZM47.8123 65.3904L48.2028 65.0781L47.5781 64.2972L47.1877 64.6096L47.8123 65.3904ZM47.1877 69.3904L47.5781 69.7028L48.2028 68.9219L47.8123 68.6096L47.1877 69.3904ZM52.8123 72.6096L52.4219 72.2972L51.7972 73.0781L52.1877 73.3904L52.8123 72.6096ZM54.5 78.5V79H55.5V78.5H54.5ZM55.5 85.5V85H54.5V85.5H55.5ZM54.5 92.5V93H55.5V92.5H54.5ZM55.5 99.5V99H54.5V99.5H55.5ZM54.5 106.5V107H55.5V106.5H54.5ZM55.5 113.5V113H54.5V113.5H55.5ZM54.5 120.5V121H55.5V120.5H54.5ZM55.5 127.5V127H54.5V127.5H55.5ZM54.5 134.5V135H55.5V134.5H54.5ZM55.5 141.5V141H54.5V141.5H55.5ZM54.5 148.5V149H55.5V148.5H54.5ZM55.5 155.5V155H54.5V155.5H55.5ZM54.5 162.5V163H55.5V162.5H54.5ZM55.5 169.5V169H54.5V169.5H55.5ZM54.5 176.5V177H55.5V176.5H54.5ZM55.5 183.5V183H54.5V183.5H55.5ZM54.5 190.5V191H55.5V190.5H54.5ZM55.5 197.5V197H54.5V197.5H55.5ZM54.5 204.5V205H55.5V204.5H54.5ZM55.5 211.5V211H54.5V211.5H55.5ZM54.5 218.5V219H55.5V218.5H54.5ZM55.5 225.5V225H54.5V225.5H55.5ZM54.5 232.5V233H55.5V232.5H54.5ZM55.5 239.5V239H54.5V239.5H55.5ZM54.5 246.5V247H55.5V246.5H54.5ZM55.5 253.5V253H54.5V253.5H55.5ZM54.795 260.024L54.8921 260.515L55.873 260.321L55.776 259.83L54.795 260.024ZM57.942 265.056L57.6638 264.641L56.8329 265.197L57.111 265.612L57.942 265.056ZM61.3876 269.889L61.8031 270.167L62.3594 269.336L61.9439 269.058L61.3876 269.889ZM67.1696 271.224L66.6791 271.127L66.485 272.108L66.9755 272.205L67.1696 271.224ZM73.4766 272.5H73.9766V271.5H73.4766V272.5ZM80.4297 271.5H79.9297V272.5H80.4297V271.5ZM87.3828 272.5H87.8828V271.5H87.3828V272.5ZM94.3359 271.5H93.8359V272.5H94.3359V271.5ZM101.289 272.5H101.789V271.5H101.289V272.5ZM108.242 271.5H107.742V272.5H108.242V271.5ZM115.195 272.5H115.695V271.5H115.195V272.5ZM122.148 271.5H121.648V272.5H122.148V271.5ZM129.102 272.5H129.602V271.5H129.102V272.5ZM136.055 271.5H135.555V272.5H136.055V271.5ZM143.008 272.5H143.508V271.5H143.008V272.5ZM149.961 271.5H149.461V272.5H149.961V271.5ZM156.914 272.5H157.414V271.5H156.914V272.5ZM163.867 271.5H163.367V272.5H163.867V271.5ZM170.82 272.5H171.32V271.5H170.82V272.5ZM177.773 271.5H177.273V272.5H177.773V271.5ZM184.727 272.5H185.227V271.5H184.727V272.5ZM191.68 271.5H191.18V272.5H191.68V271.5ZM198.633 272.5H199.133V271.5H198.633V272.5ZM205.586 271.5H205.086V272.5H205.586V271.5ZM212.539 272.5H213.039V271.5H212.539V272.5ZM219.492 271.5H218.992V272.5H219.492V271.5ZM226.445 272.5H226.945V271.5H226.445V272.5ZM233.398 271.5H232.898V272.5H233.398V271.5ZM240.352 272.5H240.852V271.5H240.352V272.5ZM247.305 271.5H246.805V272.5H247.305V271.5ZM254.258 272.5H254.758V271.5H254.258V272.5ZM261.211 271.5H260.711V272.5H261.211V271.5ZM268.164 272.5H268.664V271.5H268.164V272.5ZM275.117 271.5H274.617V272.5H275.117V271.5ZM282.07 272.5H282.57V271.5H282.07V272.5ZM289.023 271.5H288.523V272.5H289.023V271.5ZM295.977 272.5H296.477V271.5H295.977V272.5ZM302.93 271.5H302.43V272.5H302.93V271.5ZM309.883 272.5H310.383V271.5H309.883V272.5ZM316.836 271.5H316.336V272.5H316.836V271.5ZM323.789 272.5H324.289V271.5H323.789V272.5ZM330.742 271.5H330.242V272.5H330.742V271.5ZM337.695 272.5H338.195V271.5H337.695V272.5ZM344.648 271.5H344.148V272.5H344.648V271.5ZM351.602 272.5H352.102V271.5H351.602V272.5ZM358.555 271.5H358.055V272.5H358.555V271.5ZM365.508 272.5H366.008V271.5H365.508V272.5ZM372.461 271.5H371.961V272.5H372.461V271.5ZM379.414 272.5H379.914V271.5H379.414V272.5ZM386.367 271.5H385.867V272.5H386.367V271.5ZM393.32 272.5H393.82V271.5H393.32V272.5ZM400.273 271.5H399.773V272.5H400.273V271.5ZM407.227 272.5H407.727V271.5H407.227V272.5ZM414.18 271.5H413.68V272.5H414.18V271.5ZM421.133 272.5H421.633V271.5H421.133V272.5ZM428.086 271.5H427.586V272.5H428.086V271.5ZM435.039 272.5H435.539V271.5H435.039V272.5ZM441.992 271.5H441.492V272.5H441.992V271.5ZM448.945 272.5H449.445V271.5H448.945V272.5ZM455.898 271.5H455.398V272.5H455.898V271.5ZM462.852 272.5H463.352V271.5H462.852V272.5ZM469.805 271.5H469.305V272.5H469.805V271.5ZM476.758 272.5H477.258V271.5H476.758V272.5ZM483.711 271.5H483.211V272.5H483.711V271.5ZM490.664 272.5H491.164V271.5H490.664V272.5ZM497.617 271.5H497.117V272.5H497.617V271.5ZM504.57 272.5H505.07V271.5H504.57V272.5ZM511.523 271.5H511.023V272.5H511.523V271.5ZM518.024 272.205L518.515 272.108L518.321 271.127L517.83 271.224L518.024 272.205ZM523.056 269.058L522.641 269.336L523.197 270.167L523.612 269.889L523.056 269.058ZM527.889 265.612L528.167 265.197L527.336 264.641L527.058 265.056L527.889 265.612ZM529.224 259.83L529.127 260.321L530.108 260.515L530.205 260.024L529.224 259.83ZM530.5 253.583V253.083H529.5V253.583H530.5ZM529.5 246.75V247.25H530.5V246.75H529.5ZM530.5 239.917V239.417H529.5V239.917H530.5ZM529.5 233.083V233.583H530.5V233.083H529.5ZM530.5 226.25V225.75H529.5V226.25H530.5ZM529.5 219.417V219.917H530.5V219.417H529.5ZM530.5 212.583V212.083H529.5V212.583H530.5ZM529.5 205.75V206.25H530.5V205.75H529.5ZM530.5 198.917V198.417H529.5V198.917H530.5ZM529.5 192.083V192.583H530.5V192.083H529.5ZM530.5 185.25V184.75H529.5V185.25H530.5ZM529.5 178.417V178.917H530.5V178.417H529.5ZM530.5 171.583V171.083H529.5V171.583H530.5ZM529.5 164.75V165.25H530.5V164.75H529.5ZM530.5 157.917V157.417H529.5V157.917H530.5ZM529.5 151.083V151.583H530.5V151.083H529.5ZM530.5 144.25V143.75H529.5V144.25H530.5ZM529.5 137.417V137.917H530.5V137.417H529.5ZM530.5 130.583V130.083H529.5V130.583H530.5ZM529.5 123.75V124.25H530.5V123.75H529.5ZM530.5 116.917V116.417H529.5V116.917H530.5ZM529.5 110.083V110.583H530.5V110.083H529.5ZM530.5 103.25V102.75H529.5V103.25H530.5ZM529.5 96.4167V96.9167H530.5V96.4167H529.5ZM530.5 89.5833V89.0833H529.5V89.5833H530.5ZM529.5 82.75V83.25H530.5V82.75H529.5ZM530.5 75.9167V75.4167H529.5V75.9167H530.5ZM529.5 69.0834V69.5834H530.5V69.0834H529.5ZM530.5 62.25V61.75H529.5V62.25H530.5ZM529.5 55.4167V55.9167H530.5V55.4167H529.5ZM530.205 48.9755L530.108 48.485L529.127 48.6791L529.224 49.1696L530.205 48.9755ZM527.058 43.9439L527.336 44.3594L528.167 43.8031L527.889 43.3876L527.058 43.9439ZM523.612 39.111L523.197 38.8329L522.641 39.6638L523.056 39.942L523.612 39.111ZM517.83 37.776L518.321 37.873L518.515 36.8921L518.024 36.795L517.83 37.776ZM511.523 36.5H511.023V37.5H511.523V36.5ZM504.57 37.5H505.07V36.5H504.57V37.5ZM497.617 36.5H497.117V37.5H497.617V36.5ZM490.664 37.5H491.164V36.5H490.664V37.5ZM483.711 36.5H483.211V37.5H483.711V36.5ZM476.758 37.5H477.258V36.5H476.758V37.5ZM469.805 36.5H469.305V37.5H469.805V36.5ZM462.852 37.5H463.352V36.5H462.852V37.5ZM455.898 36.5H455.398V37.5H455.898V36.5ZM448.945 37.5H449.445V36.5H448.945V37.5ZM441.992 36.5H441.492V37.5H441.992V36.5ZM435.039 37.5H435.539V36.5H435.039V37.5ZM428.086 36.5H427.586V37.5H428.086V36.5ZM421.133 37.5H421.633V36.5H421.133V37.5ZM414.18 36.5H413.68V37.5H414.18V36.5ZM407.227 37.5H407.727V36.5H407.227V37.5ZM400.273 36.5H399.773V37.5H400.273V36.5ZM393.32 37.5H393.82V36.5H393.32V37.5ZM386.367 36.5H385.867V37.5H386.367V36.5ZM379.414 37.5H379.914V36.5H379.414V37.5ZM372.461 36.5H371.961V37.5H372.461V36.5ZM365.508 37.5H366.008V36.5H365.508V37.5ZM358.555 36.5H358.055V37.5H358.555V36.5ZM351.602 37.5H352.102V36.5H351.602V37.5ZM344.648 36.5H344.148V37.5H344.648V36.5ZM337.695 37.5H338.195V36.5H337.695V37.5ZM330.742 36.5H330.242V37.5H330.742V36.5ZM323.789 37.5H324.289V36.5H323.789V37.5ZM316.836 36.5H316.336V37.5H316.836V36.5ZM309.883 37.5H310.383V36.5H309.883V37.5ZM302.93 36.5H302.43V37.5H302.93V36.5ZM295.977 37.5H296.477V36.5H295.977V37.5ZM289.023 36.5H288.523V37.5H289.023V36.5ZM282.07 37.5H282.57V36.5H282.07V37.5ZM275.117 36.5H274.617V37.5H275.117V36.5ZM268.164 37.5H268.664V36.5H268.164V37.5ZM261.211 36.5H260.711V37.5H261.211V36.5ZM254.258 37.5H254.758V36.5H254.258V37.5ZM247.305 36.5H246.805V37.5H247.305V36.5ZM240.352 37.5H240.852V36.5H240.352V37.5ZM233.398 36.5H232.898V37.5H233.398V36.5ZM226.445 37.5H226.945V36.5H226.445V37.5ZM219.492 36.5H218.992V37.5H219.492V36.5ZM212.539 37.5H213.039V36.5H212.539V37.5ZM205.586 36.5H205.086V37.5H205.586V36.5ZM198.633 37.5H199.133V36.5H198.633V37.5ZM191.68 36.5H191.18V37.5H191.68V36.5ZM184.727 37.5H185.227V36.5H184.727V37.5ZM177.773 36.5H177.273V37.5H177.773V36.5ZM170.82 37.5H171.32V36.5H170.82V37.5ZM163.867 36.5H163.367V37.5H163.867V36.5ZM156.914 37.5H157.414V36.5H156.914V37.5ZM149.961 36.5H149.461V37.5H149.961V36.5ZM143.008 37.5H143.508V36.5H143.008V37.5ZM136.055 36.5H135.555V37.5H136.055V36.5ZM129.102 37.5H129.602V36.5H129.102V37.5ZM122.148 36.5H121.648V37.5H122.148V36.5ZM115.195 37.5H115.695V36.5H115.195V37.5ZM108.242 36.5H107.742V37.5H108.242V36.5ZM101.289 37.5H101.789V36.5H101.289V37.5ZM94.3359 36.5H93.8359V37.5H94.3359V36.5ZM87.3828 37.5H87.8828V36.5H87.3828V37.5ZM80.4297 36.5H79.9297V37.5H80.4297V36.5ZM73.4766 37.5H73.9766V36.5H73.4766V37.5ZM66.9755 36.795L66.485 36.8921L66.6791 37.873L67.1696 37.776L66.9755 36.795ZM61.9439 39.942L62.3594 39.6638L61.8031 38.8329L61.3876 39.111L61.9439 39.942ZM57.111 43.3876L56.8329 43.8031L57.6638 44.3594L57.942 43.9439L57.111 43.3876ZM55.776 49.1696L55.873 48.6791L54.8921 48.485L54.795 48.9755L55.776 49.1696ZM54.5 52V53.75H55.5V52H54.5ZM54.5 57.25V59H55.5V57.25H54.5ZM54.6877 58.6096L52.1877 60.6096L52.8123 61.3904L55.3123 59.3904L54.6877 58.6096ZM47.1877 64.6096L44.6877 66.6096L45.3123 67.3904L47.8123 65.3904L47.1877 64.6096ZM44.6877 67.3904L47.1877 69.3904L47.8123 68.6096L45.3123 66.6096L44.6877 67.3904ZM52.1877 73.3904L54.6877 75.3904L55.3123 74.6096L52.8123 72.6096L52.1877 73.3904ZM54.5 75V78.5H55.5V75H54.5ZM54.5 85.5V92.5H55.5V85.5H54.5ZM54.5 99.5V106.5H55.5V99.5H54.5ZM54.5 113.5V120.5H55.5V113.5H54.5ZM54.5 127.5V134.5H55.5V127.5H54.5ZM54.5 141.5V148.5H55.5V141.5H54.5ZM54.5 155.5V162.5H55.5V155.5H54.5ZM54.5 169.5V176.5H55.5V169.5H54.5ZM54.5 183.5V190.5H55.5V183.5H54.5ZM54.5 197.5V204.5H55.5V197.5H54.5ZM54.5 211.5V218.5H55.5V211.5H54.5ZM54.5 225.5V232.5H55.5V225.5H54.5ZM54.5 239.5V246.5H55.5V239.5H54.5ZM54.5 253.5V257H55.5V253.5H54.5ZM54.5 257C54.5 258.035 54.6014 259.046 54.795 260.024L55.776 259.83C55.595 258.915 55.5 257.969 55.5 257H54.5ZM57.111 265.612C58.2425 267.302 59.6975 268.757 61.3876 269.889L61.9439 269.058C60.3625 267.999 59.0008 266.638 57.942 265.056L57.111 265.612ZM66.9755 272.205C67.9541 272.399 68.9655 272.5 70 272.5V271.5C69.031 271.5 68.0846 271.405 67.1696 271.224L66.9755 272.205ZM70 272.5H73.4766V271.5H70V272.5ZM80.4297 272.5H87.3828V271.5H80.4297V272.5ZM94.3359 272.5H101.289V271.5H94.3359V272.5ZM108.242 272.5H115.195V271.5H108.242V272.5ZM122.148 272.5H129.102V271.5H122.148V272.5ZM136.055 272.5H143.008V271.5H136.055V272.5ZM149.961 272.5H156.914V271.5H149.961V272.5ZM163.867 272.5H170.82V271.5H163.867V272.5ZM177.773 272.5H184.727V271.5H177.773V272.5ZM191.68 272.5H198.633V271.5H191.68V272.5ZM205.586 272.5H212.539V271.5H205.586V272.5ZM219.492 272.5H226.445V271.5H219.492V272.5ZM233.398 272.5H240.352V271.5H233.398V272.5ZM247.305 272.5H254.258V271.5H247.305V272.5ZM261.211 272.5H268.164V271.5H261.211V272.5ZM275.117 272.5H282.07V271.5H275.117V272.5ZM289.023 272.5H295.977V271.5H289.023V272.5ZM302.93 272.5H309.883V271.5H302.93V272.5ZM316.836 272.5H323.789V271.5H316.836V272.5ZM330.742 272.5H337.695V271.5H330.742V272.5ZM344.648 272.5H351.602V271.5H344.648V272.5ZM358.555 272.5H365.508V271.5H358.555V272.5ZM372.461 272.5H379.414V271.5H372.461V272.5ZM386.367 272.5H393.32V271.5H386.367V272.5ZM400.273 272.5H407.227V271.5H400.273V272.5ZM414.18 272.5H421.133V271.5H414.18V272.5ZM428.086 272.5H435.039V271.5H428.086V272.5ZM441.992 272.5H448.945V271.5H441.992V272.5ZM455.898 272.5H462.852V271.5H455.898V272.5ZM469.805 272.5H476.758V271.5H469.805V272.5ZM483.711 272.5H490.664V271.5H483.711V272.5ZM497.617 272.5H504.57V271.5H497.617V272.5ZM511.523 272.5H515V271.5H511.523V272.5ZM515 272.5C516.035 272.5 517.046 272.399 518.024 272.205L517.83 271.224C516.915 271.405 515.969 271.5 515 271.5V272.5ZM523.612 269.889C525.302 268.757 526.757 267.302 527.889 265.612L527.058 265.056C525.999 266.638 524.638 267.999 523.056 269.058L523.612 269.889ZM530.205 260.024C530.399 259.046 530.5 258.035 530.5 257H529.5C529.5 257.969 529.405 258.915 529.224 259.83L530.205 260.024ZM530.5 257V253.583H529.5V257H530.5ZM530.5 246.75V239.917H529.5V246.75H530.5ZM530.5 233.083V226.25H529.5V233.083H530.5ZM530.5 219.417V212.583H529.5V219.417H530.5ZM530.5 205.75V198.917H529.5V205.75H530.5ZM530.5 192.083V185.25H529.5V192.083H530.5ZM530.5 178.417V171.583H529.5V178.417H530.5ZM530.5 164.75V157.917H529.5V164.75H530.5ZM530.5 151.083V144.25H529.5V151.083H530.5ZM530.5 137.417V130.583H529.5V137.417H530.5ZM530.5 123.75V116.917H529.5V123.75H530.5ZM530.5 110.083V103.25H529.5V110.083H530.5ZM530.5 96.4167V89.5833H529.5V96.4167H530.5ZM530.5 82.75V75.9167H529.5V82.75H530.5ZM530.5 69.0834V62.25H529.5V69.0834H530.5ZM530.5 55.4167V52H529.5V55.4167H530.5ZM530.5 52C530.5 50.9655 530.399 49.9541 530.205 48.9755L529.224 49.1696C529.405 50.0846 529.5 51.031 529.5 52H530.5ZM527.889 43.3876C526.757 41.6975 525.302 40.2425 523.612 39.111L523.056 39.942C524.638 41.0008 525.999 42.3625 527.058 43.9439L527.889 43.3876ZM518.024 36.795C517.046 36.6014 516.035 36.5 515 36.5V37.5C515.969 37.5 516.915 37.595 517.83 37.776L518.024 36.795ZM515 36.5H511.523V37.5H515V36.5ZM504.57 36.5H497.617V37.5H504.57V36.5ZM490.664 36.5H483.711V37.5H490.664V36.5ZM476.758 36.5H469.805V37.5H476.758V36.5ZM462.852 36.5H455.898V37.5H462.852V36.5ZM448.945 36.5H441.992V37.5H448.945V36.5ZM435.039 36.5H428.086V37.5H435.039V36.5ZM421.133 36.5H414.18V37.5H421.133V36.5ZM407.227 36.5H400.273V37.5H407.227V36.5ZM393.32 36.5H386.367V37.5H393.32V36.5ZM379.414 36.5H372.461V37.5H379.414V36.5ZM365.508 36.5H358.555V37.5H365.508V36.5ZM351.602 36.5H344.648V37.5H351.602V36.5ZM337.695 36.5H330.742V37.5H337.695V36.5ZM323.789 36.5H316.836V37.5H323.789V36.5ZM309.883 36.5H302.93V37.5H309.883V36.5ZM295.977 36.5H289.023V37.5H295.977V36.5ZM282.07 36.5H275.117V37.5H282.07V36.5ZM268.164 36.5H261.211V37.5H268.164V36.5ZM254.258 36.5H247.305V37.5H254.258V36.5ZM240.352 36.5H233.398V37.5H240.352V36.5ZM226.445 36.5H219.492V37.5H226.445V36.5ZM212.539 36.5H205.586V37.5H212.539V36.5ZM198.633 36.5H191.68V37.5H198.633V36.5ZM184.727 36.5H177.773V37.5H184.727V36.5ZM170.82 36.5H163.867V37.5H170.82V36.5ZM156.914 36.5H149.961V37.5H156.914V36.5ZM143.008 36.5H136.055V37.5H143.008V36.5ZM129.102 36.5H122.148V37.5H129.102V36.5ZM115.195 36.5H108.242V37.5H115.195V36.5ZM101.289 36.5H94.3359V37.5H101.289V36.5ZM87.3828 36.5H80.4297V37.5H87.3828V36.5ZM73.4766 36.5H70V37.5H73.4766V36.5ZM70 36.5C68.9655 36.5 67.9541 36.6014 66.9755 36.795L67.1696 37.776C68.0846 37.595 69.031 37.5 70 37.5V36.5ZM61.3876 39.111C59.6975 40.2425 58.2425 41.6975 57.111 43.3876L57.942 43.9439C59.0008 42.3625 60.3625 41.0008 61.9439 39.942L61.3876 39.111ZM54.795 48.9755C54.6014 49.9541 54.5 50.9655 54.5 52H55.5C55.5 51.031 55.595 50.0846 55.776 49.1696L54.795 48.9755Z" fill="#E2E3EF"/>
<defs>
<filter id="filter0_d_37_14" x="0" y="0" width="575" height="325" filterUnits="userSpaceOnUse" color-interpolation-filters="sRGB">
<feFlood flood-opacity="0" result="BackgroundImageFix"/>
<feColorMatrix in="SourceAlpha" type="matrix" values="0 0 0 0 0 0 0 0 0 0 0 0 0 0 0 0 0 0 127 0" result="hardAlpha"/>
<feOffset dy="8"/>
<feGaussianBlur stdDeviation="20"/>
<feComposite in2="hardAlpha" operator="out"/>
<feColorMatrix type="matrix" values="0 0 0 0 0 0 0 0 0 0 0 0 0 0 0 0 0 0 0.15 0"/>
<feBlend mode="normal" in2="BackgroundImageFix" result="effect1_dropShadow_37_14"/>
<feBlend mode="normal" in="SourceGraphic" in2="effect1_dropShadow_37_14" result="shape"/>
</filter>
</defs>
</svg>
