<!-- Generator: Adobe Illustrator 26.0.3, SVG Export Plug-In . SVG Version: 6.00 Build 0)  --><svg version="1.1" id="Слой_1" xmlns="http://www.w3.org/2000/svg" xmlns:xlink="http://www.w3.org/1999/xlink" x="0px" y="0px" viewBox="0 0 21 24" style="enable-background:new 0 0 21 24;" xml:space="preserve" height="24" width="21"><style type="text/css">	.st0{fill:#F35A05;}	.st1{fill:none;stroke:#FFFFFF;stroke-width:2;stroke-linecap:round;stroke-linejoin:round;}</style><path class="st0" d="M0,24h21V6.5L13.8,0H0V24z" /><path class="st1" d="M9.8,7C9.5,7,9.2,7.3,9.2,7.7v1.1C9.2,9,9,9.3,8.8,9.4C8.6,9.5,8.5,9.6,8.3,9.7c-0.2,0.2-0.5,0.2-0.8,0L6.6,9.2  C6.3,9,5.9,9.1,5.7,9.4l-0.7,1.2c-0.2,0.3-0.1,0.7,0.2,0.9L6.3,12c0.2,0.1,0.4,0.4,0.3,0.7c0,0.1,0,0.2,0,0.3c0,0.1,0,0.2,0,0.3  c0,0.3-0.1,0.6-0.3,0.7l-0.9,0.5c-0.3,0.2-0.4,0.6-0.2,0.9l0.7,1.2c0.2,0.3,0.6,0.4,0.9,0.2l0.9-0.5c0.2-0.1,0.5-0.1,0.8,0  c0.1,0.1,0.3,0.2,0.4,0.3C9,16.7,9.2,17,9.2,17.2v1.1c0,0.4,0.3,0.7,0.7,0.7h1.3c0.4,0,0.7-0.3,0.7-0.7v-1.1c0-0.3,0.2-0.5,0.4-0.7  c0.2-0.1,0.3-0.2,0.4-0.3c0.2-0.2,0.5-0.2,0.8,0l0.9,0.5c0.3,0.2,0.7,0.1,0.9-0.2l0.7-1.2c0.2-0.3,0.1-0.7-0.2-0.9L14.7,14  c-0.2-0.1-0.4-0.4-0.3-0.7c0-0.1,0-0.2,0-0.3s0-0.2,0-0.3c0-0.3,0.1-0.6,0.3-0.7l0.9-0.5c0.3-0.2,0.4-0.6,0.2-0.9l-0.7-1.2  c-0.2-0.3-0.6-0.4-0.9-0.2l-0.9,0.5c-0.2,0.1-0.5,0.1-0.8,0c-0.1-0.1-0.3-0.2-0.4-0.3C12,9.3,11.8,9,11.8,8.8V7.7  c0-0.4-0.3-0.7-0.7-0.7H9.8z" /></svg>