<!-- Generator: Adobe Illustrator 26.0.3, SVG Export Plug-In . SVG Version: 6.00 Build 0)  --><svg version="1.1" id="Слой_1" xmlns="http://www.w3.org/2000/svg" xmlns:xlink="http://www.w3.org/1999/xlink" x="0px" y="0px" viewBox="0 0 21 24" style="enable-background:new 0 0 21 24;" xml:space="preserve" height="24" width="21"><style type="text/css">	.st0{fill:#F35A05;}	.st1{fill:#FFFFFF;}</style><path class="st0" d="M0,24h21V6.5L13.8,0H0V24z" /><path class="st1" d="M15.3,18.7c0.4,0.4,1,0.4,1.4,0s0.4-1,0-1.4L15.3,18.7z M13.7,11.9c0,2.1-1.7,3.9-3.9,3.9v2  c3.2,0,5.9-2.6,5.9-5.9H13.7z M9.9,15.7C7.7,15.7,6,14,6,11.9H4c0,3.2,2.6,5.9,5.9,5.9V15.7z M6,11.9C6,9.7,7.7,8,9.9,8V6  C6.6,6,4,8.6,4,11.9H6z M9.9,8c2.1,0,3.9,1.7,3.9,3.9h2c0-3.2-2.6-5.9-5.9-5.9V8z M16.7,17.3L14,14.6L12.6,16l2.7,2.7L16.7,17.3z" /></svg>